# xmcd
#
# Track frame offsets:
#	300
#	15375
#	31425
#	49800
#	64875
#	81525
#	101100
#	118200
#	132450
#	146100
#	170175
#
# Disc length: 2286 seconds
#
# Revision: 1
# Processed by: cddbd v1.5.1PL0 Copyright (c) Steve Scherf et al.
# Submitted via: audiograbber 1.83.01
#
DISCID=ac08ea0b
DTITLE=Gretchen Wilson - Here for the Party Karaoke
DYEAR=1900
DGENRE=
TTITLE0=Here For The Party
TTITLE1=Redneck Woman
TTITLE2=When I Think About Cheatin'
TTITLE3=Homewrecker
TTITLE4=Holdin' You
TTITLE5=Chariot
TTITLE6=What Happened
TTITLE7=When It Rains
TTITLE8=The Bed
TTITLE9=Pocohantas Proud
TTITLE10=don't know
EXTD=
EXTT0=
EXTT1=
EXTT2=
EXTT3=
EXTT4=
EXTT5=
EXTT6=
EXTT7=
EXTT8=
EXTT9=
EXTT10=
PLAYORDER=
